<svg width="251" height="174" viewBox="0 0 251 174" fill="none" xmlns="http://www.w3.org/2000/svg">
<path d="M83.006 58.3842C83.006 78.7363 69.6222 115.583 53.1386 105.649C36.6549 95.7137 15.0905 66.7191 15.0905 46.367C59.6933 81.2587 86.085 105.419 59.6933 20.903C86.085 -7.33595 83.006 38.0321 83.006 58.3842Z" fill="#985E6D"/>
<path d="M111.255 80.811C111.255 115.74 135.221 174 118.837 174C102.453 174 77.2564 127.715 81.5894 80.811C86.8634 23.7223 54.9871 13.9277 71.3712 13.9277C92.467 1.33454 111.255 45.8816 111.255 80.811Z" fill="#985E6D"/>
<path d="M112.109 122.759V123.087C112.109 123.181 112.094 123.274 112.063 123.368C111.719 124.024 111.297 124.524 110.797 124.868C110.297 125.212 109.672 125.384 108.922 125.384C108.422 125.384 108.047 125.337 107.797 125.243C107.578 125.149 107.281 124.977 106.906 124.727C106.344 124.79 105.703 124.852 104.984 124.915C104.266 124.946 103.547 125.024 102.828 125.149C102.109 125.243 101.422 125.384 100.766 125.571C100.141 125.759 99.6095 126.04 99.172 126.415C98.8907 128.571 98.7345 130.727 98.7032 132.884C98.7032 135.009 98.672 137.149 98.6095 139.306C98.8595 139.962 99.0313 140.681 99.1251 141.462C99.2188 142.274 99.2813 143.009 99.3126 143.665C99.5313 144.04 99.7032 144.415 99.8282 144.79C99.9532 145.196 100.078 145.602 100.203 146.009C100.328 146.415 100.469 146.806 100.625 147.181C100.813 147.556 101.047 147.899 101.328 148.212C101.578 148.212 101.797 148.227 101.984 148.259C102.203 148.321 102.422 148.384 102.641 148.446V148.727C102.641 149.196 102.781 149.54 103.063 149.759C103.344 149.977 103.656 150.212 104 150.462C104.094 150.806 104.141 151.134 104.141 151.446C104.141 151.977 104.016 152.477 103.766 152.946C103.547 153.415 103.172 153.743 102.641 153.931C102.328 153.931 102.031 153.884 101.75 153.79C101.469 153.727 101.172 153.696 100.859 153.696C100.641 153.696 100.406 153.727 100.156 153.79C100 153.727 99.8595 153.634 99.7345 153.509C99.6407 153.415 99.5313 153.321 99.4063 153.227C99.2813 153.134 99.1407 153.056 98.9845 152.993C98.8595 152.931 98.6876 152.915 98.4688 152.946C98.3126 152.509 98.0626 152.102 97.7188 151.727C97.3751 151.352 96.9532 151.196 96.4532 151.259C96.4845 151.134 96.5001 150.946 96.5001 150.696C96.5001 150.259 96.4063 149.852 96.2188 149.477C96.0626 149.102 95.8126 148.806 95.4688 148.587C95.3126 147.868 95.172 147.071 95.047 146.196C94.922 145.352 94.6563 144.618 94.2501 143.993C94.2501 143.087 94.1563 142.212 93.9688 141.368C93.7813 140.556 93.6095 139.712 93.4532 138.837C93.5782 138.337 93.6407 137.774 93.6407 137.149C93.6407 136.712 93.6251 136.29 93.5938 135.884C93.5626 135.446 93.547 135.024 93.547 134.618C93.547 134.181 93.5782 133.759 93.6407 133.352C93.7032 132.915 93.8595 132.493 94.1095 132.087C93.922 131.774 93.797 131.462 93.7345 131.149C93.672 130.806 93.6407 130.462 93.6407 130.118C93.6407 129.587 93.672 129.071 93.7345 128.571L93.922 127.071C93.8595 127.04 93.7501 127.024 93.5938 127.024C93.2813 127.024 93.0157 127.087 92.797 127.212L92.0938 127.54C91.9376 127.509 91.797 127.493 91.672 127.493H91.2501C90.7813 127.493 90.3126 127.571 89.8438 127.727C89.4063 127.852 89.0157 128.087 88.672 128.431C87.6095 128.431 86.547 128.54 85.4845 128.759C84.422 128.946 83.3595 129.181 82.297 129.462C81.2657 129.743 80.2345 130.056 79.2032 130.399C78.172 130.712 77.1407 130.993 76.1095 131.243C75.8595 132.462 75.672 133.696 75.547 134.946C75.422 136.165 75.3595 137.415 75.3595 138.696V139.821C75.3595 140.227 75.3907 140.618 75.4532 140.993C75.4845 141.243 75.5626 141.462 75.6876 141.649C75.8438 141.868 75.922 142.102 75.922 142.352C75.922 142.571 75.8751 142.743 75.7813 142.868C76.0001 143.243 76.3282 143.571 76.7657 143.852C77.2345 143.696 77.6407 143.618 77.9845 143.618C78.547 143.618 79.0782 143.743 79.5782 143.993C80.0782 144.274 80.6095 144.462 81.172 144.556C81.047 144.993 80.8595 145.415 80.6095 145.821C80.3595 146.259 80.2032 146.727 80.1407 147.227C80.0157 147.29 79.8907 147.321 79.7657 147.321C79.672 147.321 79.5782 147.321 79.4845 147.321C79.3907 147.352 79.3126 147.415 79.2501 147.509C79.2188 147.602 79.2345 147.79 79.297 148.071C78.8595 148.29 78.422 148.431 77.9845 148.493C77.547 148.587 77.0938 148.649 76.6251 148.681C76.1876 148.712 75.7345 148.727 75.2657 148.727C74.8282 148.727 74.3751 148.743 73.9063 148.774C73.9063 148.587 73.8595 148.431 73.7657 148.306C73.7032 148.212 73.6095 148.134 73.4845 148.071C73.3595 148.04 73.2188 147.993 73.0626 147.931C72.9376 147.868 72.8282 147.79 72.7345 147.696C72.4845 147.477 72.2813 147.181 72.1251 146.806C72.0001 146.462 71.8595 146.087 71.7032 145.681C71.5782 145.306 71.4376 144.931 71.2813 144.556C71.1251 144.181 70.9376 143.837 70.7188 143.524C70.6563 142.837 70.6095 142.165 70.5782 141.509C70.547 140.852 70.5313 140.181 70.5313 139.493C70.5313 138.212 70.5782 136.962 70.672 135.743C70.7657 134.493 70.8438 133.212 70.9063 131.899C70.6251 131.618 70.297 131.493 69.922 131.524C69.5782 131.556 69.2345 131.524 68.8907 131.431C68.5157 130.962 68.2032 130.446 67.9532 129.884C67.7032 129.29 67.5782 128.681 67.5782 128.056C67.5782 127.743 67.6251 127.415 67.7188 127.071C68.0001 126.977 68.3126 126.884 68.6563 126.79C69.0001 126.696 69.1876 126.446 69.2188 126.04C69.4376 126.165 69.7032 126.227 70.0157 126.227C70.3282 126.227 70.6407 126.181 70.9532 126.087C71.2657 125.993 71.5782 125.915 71.8907 125.852C72.0157 125.352 72.1095 124.868 72.172 124.399C72.2657 123.899 72.2813 123.384 72.2188 122.852C72.6563 122.196 72.9376 121.477 73.0626 120.696C73.2188 119.915 73.3282 119.165 73.3907 118.446V117.79C73.3907 117.571 73.4063 117.352 73.4376 117.134C73.5001 116.79 73.5938 116.399 73.7188 115.962C73.8438 115.524 73.9532 115.118 74.047 114.743C74.2032 114.149 74.297 113.587 74.3282 113.056C74.3907 112.524 74.422 111.977 74.422 111.415V111.227C74.422 111.071 74.3595 110.962 74.2345 110.899C74.1095 110.806 74.047 110.681 74.047 110.524L74.0938 110.431C74.2188 109.431 74.3595 108.446 74.5157 107.477C74.7032 106.477 74.9532 105.493 75.2657 104.524C75.0157 103.806 74.8907 102.993 74.8907 102.087C74.8907 100.899 75.0782 99.7587 75.4532 98.6649C75.2657 98.1649 75.172 97.6806 75.172 97.2118C75.172 96.8368 75.1876 96.4618 75.2188 96.0868C75.2813 95.7118 75.297 95.3368 75.2657 94.9618C75.5782 94.8056 75.8282 94.5868 76.0157 94.3056C76.2345 94.0243 76.4845 93.7899 76.7657 93.6024C77.7032 93.5712 78.4845 93.8837 79.1095 94.5399C79.7657 95.1962 80.0938 95.9931 80.0938 96.9306C80.0938 97.6493 79.8907 98.3368 79.4845 98.9931C79.6095 99.5868 79.672 100.274 79.672 101.056C79.672 102.212 79.5938 103.368 79.4376 104.524C79.2813 105.681 79.2345 106.852 79.297 108.04C79.1095 108.477 79.0157 109.009 79.0157 109.634C79.047 110.259 79.0313 110.79 78.9688 111.227C78.9063 111.665 78.8126 112.118 78.6876 112.587C78.5626 113.024 78.4845 113.462 78.4532 113.899C78.422 114.618 78.3907 115.337 78.3595 116.056C78.3595 116.774 78.2813 117.462 78.1251 118.118C78.0626 118.368 77.9688 118.587 77.8438 118.774C77.7501 118.931 77.672 119.118 77.6095 119.337C77.4845 119.993 77.4376 120.665 77.4688 121.352C77.5313 122.009 77.5313 122.681 77.4688 123.368C77.4376 123.587 77.3751 123.806 77.2813 124.024C77.2188 124.243 77.1876 124.477 77.1876 124.727C77.1876 124.852 77.2188 125.009 77.2813 125.196C80.1251 124.946 82.9532 124.524 85.7657 123.931C88.5782 123.337 91.4063 122.821 94.2501 122.384C94.4688 121.977 94.5782 121.556 94.5782 121.118C94.5782 120.868 94.5313 120.618 94.4376 120.368C94.7501 119.337 94.9845 118.306 95.1407 117.274C95.3282 116.212 95.4845 115.165 95.6095 114.134C95.7345 113.102 95.8438 112.071 95.9376 111.04C96.0313 109.977 96.1563 108.931 96.3126 107.899L96.5938 106.306C96.6876 105.774 96.8126 105.259 96.9688 104.759C97.0313 104.571 97.0938 104.384 97.1563 104.196C97.2501 104.009 97.297 103.837 97.297 103.681C97.297 103.524 97.2032 103.415 97.0157 103.352C96.8595 103.29 96.7813 103.212 96.7813 103.118C96.7813 103.056 96.797 103.024 96.8282 103.024C96.8907 102.993 96.9376 102.993 96.9688 103.024C97.1251 102.743 97.2188 102.446 97.2501 102.134C97.2813 101.821 97.297 101.509 97.297 101.196C97.3282 100.884 97.3751 100.587 97.4376 100.306C97.5001 99.9931 97.6251 99.7118 97.8126 99.4618C97.7813 99.2431 97.7188 99.0399 97.6251 98.8524C97.5313 98.6649 97.4845 98.4462 97.4845 98.1962C97.4532 98.1649 97.4532 98.1337 97.4845 98.1024C97.547 97.8212 97.5782 97.5868 97.5782 97.3993C97.6095 97.1806 97.6251 96.9306 97.6251 96.6493C97.6251 96.2743 97.797 95.9774 98.1407 95.7587C97.9845 95.2274 97.8751 94.6493 97.8126 94.0243C97.7501 93.3993 97.7188 92.7899 97.7188 92.1962C97.7188 91.3837 97.9063 90.7118 98.2813 90.1806C98.6876 89.6181 99.3438 89.3368 100.25 89.3368C100.719 89.3368 101.156 89.4306 101.563 89.6181C102 89.8056 102.359 90.0712 102.641 90.4149C102.797 91.1337 102.875 91.8056 102.875 92.4306C102.875 92.8681 102.844 93.2899 102.781 93.6962C102.75 94.0712 102.734 94.4774 102.734 94.9149C102.734 95.2587 102.766 95.5868 102.828 95.8993C102.891 96.1806 102.953 96.4774 103.016 96.7899C102.734 97.2274 102.531 97.7118 102.406 98.2431C102.281 98.7743 102.188 99.3212 102.125 99.8837C102.094 100.446 102.063 101.024 102.031 101.618C102.031 102.181 102.016 102.696 101.984 103.165C101.891 104.196 101.734 105.212 101.516 106.212C101.328 107.212 101.109 108.212 100.859 109.212C100.953 109.556 101 109.868 101 110.149C101 110.712 100.922 111.274 100.766 111.837C100.609 112.368 100.563 112.899 100.625 113.431C100.406 113.993 100.266 114.571 100.203 115.165C100.141 115.727 100.094 116.321 100.063 116.946L99.9688 118.774C99.9376 119.368 99.8282 119.946 99.6407 120.509C99.7032 120.665 99.8126 120.759 99.9688 120.79C100.156 120.79 100.219 120.915 100.156 121.165C100.875 120.946 101.641 120.852 102.453 120.884C103.266 120.884 104.031 120.884 104.75 120.884C105.219 120.884 105.688 120.884 106.156 120.884C106.625 120.852 107.094 120.79 107.563 120.696C108.031 120.571 108.5 120.431 108.969 120.274C109.469 120.087 109.953 119.993 110.422 119.993C111.078 119.993 111.578 120.227 111.922 120.696C111.984 121.04 112.031 121.384 112.063 121.727C112.094 122.071 112.109 122.415 112.109 122.759ZM146.656 135.884C146.563 136.321 146.359 136.681 146.047 136.962C145.766 137.212 145.422 137.415 145.016 137.571C144.609 137.727 144.188 137.837 143.75 137.899C143.344 137.931 142.969 137.946 142.625 137.946C142.469 137.946 142.313 137.946 142.156 137.946C142.031 137.915 141.891 137.899 141.734 137.899C141.578 137.899 141.5 137.977 141.5 138.134C141.5 138.29 141.422 138.399 141.266 138.462C141.109 138.399 140.953 138.352 140.797 138.321C140.641 138.29 140.484 138.274 140.328 138.274C140.109 138.274 139.891 138.29 139.672 138.321C139.484 138.352 139.297 138.368 139.109 138.368C138.859 138.368 138.672 138.337 138.547 138.274C138.453 138.212 138.359 138.149 138.266 138.087C138.203 137.993 138.125 137.899 138.031 137.806C137.969 137.712 137.859 137.634 137.703 137.571C137.484 137.477 137.297 137.462 137.141 137.524C137.016 137.587 136.813 137.493 136.531 137.243C136.156 136.931 135.828 136.556 135.547 136.118C135.297 135.649 135.047 135.165 134.797 134.665C134.547 134.165 134.281 133.665 134 133.165C133.719 132.665 133.391 132.227 133.016 131.852H132.641C132.078 131.852 131.688 132.087 131.469 132.556C131.313 132.462 131.156 132.352 131 132.227C130.844 132.071 130.672 131.946 130.484 131.852C129.766 132.071 129.016 132.259 128.234 132.415C127.453 132.571 126.672 132.649 125.891 132.649H125.234C125.047 132.649 124.844 132.618 124.625 132.556C124.313 132.681 124.031 132.837 123.781 133.024C123.531 133.181 123.25 133.259 122.938 133.259C122.75 133.259 122.531 133.196 122.281 133.071C122.094 133.071 122 133.149 122 133.306C122.031 133.462 121.938 133.54 121.719 133.54H121.297C120.859 133.54 120.422 133.556 119.984 133.587C119.578 133.618 119.156 133.634 118.719 133.634C118.125 133.634 117.516 133.556 116.891 133.399C116.734 133.493 116.563 133.54 116.375 133.54C116.25 133.602 116.156 133.712 116.094 133.868C116.031 133.993 115.969 134.118 115.906 134.243C115.844 134.337 115.75 134.431 115.625 134.524C115.531 134.587 115.391 134.602 115.203 134.571C115.141 134.946 114.984 135.243 114.734 135.462C114.484 135.681 114.359 136.009 114.359 136.446C114.016 136.634 113.734 136.868 113.516 137.149C113.297 137.431 113.078 137.727 112.859 138.04C112.641 138.352 112.406 138.649 112.156 138.931C111.938 139.212 111.656 139.431 111.313 139.587C111.156 139.774 111.109 140.071 111.172 140.477C110.828 140.759 110.406 141.009 109.906 141.227C109.406 141.446 108.938 141.556 108.5 141.556C107.594 141.556 106.969 141.071 106.625 140.102C106.625 139.79 106.656 139.462 106.719 139.118C106.75 138.743 106.813 138.399 106.906 138.087C107 137.743 107.141 137.446 107.328 137.196C107.516 136.915 107.781 136.712 108.125 136.587C108.125 136.306 108.031 136.118 107.844 136.024C107.656 135.899 107.578 135.696 107.609 135.415C108.453 135.009 109.188 134.477 109.813 133.821C110.438 133.165 111 132.477 111.5 131.759C112.031 131.009 112.563 130.259 113.094 129.509C113.625 128.759 114.219 128.087 114.875 127.493V126.509C115.813 125.509 116.422 124.384 116.703 123.134C117.047 123.071 117.266 122.915 117.359 122.665C117.484 122.415 117.547 122.118 117.547 121.774C117.703 121.774 117.797 121.712 117.828 121.587C117.891 121.431 118.031 121.384 118.25 121.446C118.531 120.696 118.844 120.009 119.188 119.384C119.531 118.759 119.875 118.134 120.219 117.509C120.563 116.852 120.859 116.181 121.109 115.493C121.391 114.806 121.594 114.04 121.719 113.196C122.156 113.165 122.391 112.962 122.422 112.587C122.484 112.181 122.547 111.821 122.609 111.509C123.078 111.071 123.422 110.556 123.641 109.962C123.891 109.368 124.109 108.759 124.297 108.134C124.484 107.477 124.688 106.837 124.906 106.212C125.156 105.556 125.5 104.977 125.938 104.477V104.337C125.938 104.181 125.875 104.087 125.75 104.056C125.625 103.993 125.563 103.884 125.563 103.727C125.594 103.696 125.609 103.665 125.609 103.634C125.984 103.477 126.266 103.227 126.453 102.884C126.641 102.509 126.922 102.243 127.297 102.087C127.953 102.618 128.531 102.946 129.031 103.071C129.531 103.165 130.188 103.243 131 103.306C131.406 103.743 131.625 104.274 131.656 104.899C131.719 105.493 131.828 106.087 131.984 106.681C132.234 107.681 132.5 108.665 132.781 109.634C133.094 110.571 133.328 111.54 133.484 112.54C133.578 113.134 133.75 113.696 134 114.227C134.25 114.759 134.422 115.306 134.516 115.868C134.578 116.306 134.578 116.806 134.516 117.368C134.453 117.899 134.516 118.368 134.703 118.774L135.031 119.524C135.188 119.868 135.313 120.227 135.406 120.602C135.531 120.977 135.641 121.352 135.734 121.727C135.984 122.665 136.203 123.681 136.391 124.774C136.609 125.837 136.938 126.806 137.375 127.681C137.531 127.993 137.766 128.212 138.078 128.337C138.422 128.462 138.797 128.556 139.203 128.618C139.609 128.649 140 128.665 140.375 128.665C140.781 128.634 141.125 128.618 141.406 128.618H141.875C142.063 128.618 142.25 128.649 142.438 128.712C142.563 128.962 142.625 129.181 142.625 129.368C142.625 129.743 142.5 130.04 142.25 130.259C142 130.477 141.875 130.727 141.875 131.009C141.875 131.165 141.938 131.337 142.063 131.524C141.938 131.493 141.75 131.477 141.5 131.477C140.781 131.477 140.078 131.602 139.391 131.852C139.641 132.384 139.969 132.837 140.375 133.212C140.813 133.556 141.266 133.884 141.734 134.196C142.047 133.946 142.375 133.821 142.719 133.821C143.094 133.821 143.438 133.915 143.75 134.102C144.094 134.259 144.453 134.337 144.828 134.337C145.109 134.337 145.313 134.29 145.438 134.196C145.688 134.477 145.891 134.774 146.047 135.087C146.203 135.368 146.406 135.634 146.656 135.884ZM131.984 128.384C131.922 127.852 131.813 127.477 131.656 127.259C131.531 127.009 131.422 126.712 131.328 126.368C131.203 125.931 131.109 125.462 131.047 124.962C131.016 124.462 130.953 123.977 130.859 123.509C130.641 122.446 130.391 121.384 130.109 120.321C129.859 119.259 129.531 118.227 129.125 117.227C129.25 117.04 129.313 116.868 129.313 116.712V116.571C129.031 116.259 128.828 115.884 128.703 115.446C128.578 114.977 128.453 114.524 128.328 114.087C128.234 113.618 128.094 113.196 127.906 112.821C127.75 112.415 127.484 112.087 127.109 111.837C127.016 112.024 126.969 112.243 126.969 112.493C126.969 112.712 126.984 112.915 127.016 113.102C127.078 113.29 127.109 113.493 127.109 113.712C126.797 113.868 126.563 114.118 126.406 114.462C126.281 114.774 126.063 115.024 125.75 115.212C125.5 116.212 125.141 117.165 124.672 118.071C124.203 118.946 123.703 119.821 123.172 120.696C122.672 121.571 122.188 122.462 121.719 123.368C121.25 124.243 120.875 125.165 120.594 126.134C120.188 126.415 119.906 126.774 119.75 127.212C119.625 127.649 119.563 128.087 119.563 128.524C119.844 128.681 120.156 128.774 120.5 128.806C120.875 128.806 121.234 128.806 121.578 128.806C121.922 128.806 122.25 128.837 122.563 128.899C122.875 128.962 123.156 129.118 123.406 129.368C123.813 129.243 124.25 129.165 124.719 129.134C125.219 129.071 125.625 128.931 125.938 128.712C126.563 128.931 127.234 129.04 127.953 129.04C128.328 129.04 128.688 129.009 129.031 128.946C129.406 128.884 129.766 128.806 130.109 128.712C130.391 128.774 130.609 128.884 130.766 129.04C130.922 129.165 131.156 129.212 131.469 129.181C131.625 129.056 131.719 128.931 131.75 128.806C131.781 128.649 131.859 128.509 131.984 128.384ZM156.406 132.884C156.25 133.134 156.063 133.368 155.844 133.587C155.625 133.774 155.422 133.977 155.234 134.196C155.016 134.29 154.766 134.337 154.484 134.337C154.234 134.337 153.984 134.337 153.734 134.337C153.516 134.306 153.297 134.306 153.078 134.337C152.891 134.337 152.734 134.399 152.609 134.524C152.359 134.462 152.172 134.352 152.047 134.196C151.922 134.009 151.703 133.899 151.391 133.868C151.266 133.837 151.141 133.837 151.016 133.868C150.547 133.337 150.109 132.774 149.703 132.181C149.328 131.587 148.969 131.024 148.625 130.493C148.594 129.337 148.5 128.165 148.344 126.977C148.313 126.696 148.266 126.415 148.203 126.134C148.141 125.852 148.094 125.587 148.063 125.337C148.063 125.024 148.078 124.727 148.109 124.446C148.172 124.134 148.219 123.852 148.25 123.602C148.375 122.696 148.516 121.806 148.672 120.931C148.828 120.056 148.969 119.165 149.094 118.259C149.219 117.446 149.281 116.602 149.281 115.727C149.281 114.821 149.141 113.977 148.859 113.196L148.813 112.962C148.875 112.712 148.938 112.509 149 112.352C149.094 112.165 149.156 111.962 149.188 111.743C149.25 111.399 149.172 111.149 148.953 110.993C149.047 110.743 149.203 110.587 149.422 110.524C149.641 110.431 149.766 110.243 149.797 109.962C149.828 109.837 149.828 109.712 149.797 109.587C150.047 109.493 150.297 109.415 150.547 109.352C150.828 109.259 151.094 109.243 151.344 109.306C151.75 109.368 152.109 109.509 152.422 109.727C152.734 109.915 153.031 110.134 153.313 110.384C153.813 111.884 154.016 113.477 153.922 115.165C153.828 116.821 153.672 118.493 153.453 120.181C153.234 121.868 153.094 123.524 153.031 125.149C152.969 126.743 153.219 128.227 153.781 129.602L153.875 129.649C154.031 129.681 154.156 129.634 154.25 129.509C154.344 129.352 154.469 129.29 154.625 129.321C154.75 129.384 154.828 129.415 154.859 129.415C154.984 130.04 155.188 130.634 155.469 131.196C155.75 131.759 156.063 132.321 156.406 132.884ZM186.406 127.259C186.406 127.602 186.281 127.868 186.031 128.056C185.781 128.212 185.656 128.431 185.656 128.712C185.656 128.837 185.719 128.993 185.844 129.181C185.406 129.181 185.109 129.321 184.953 129.602C184.797 129.884 184.641 130.196 184.484 130.54H183.875C183.719 130.54 183.594 130.571 183.5 130.634C183.406 130.696 183.313 130.79 183.219 130.915C183.156 131.009 183.063 131.165 182.938 131.384C182.344 131.509 181.766 131.712 181.203 131.993C180.672 132.243 180.141 132.524 179.609 132.837C179.109 133.118 178.594 133.415 178.063 133.727C177.531 134.009 176.984 134.243 176.422 134.431C176.141 134.899 175.734 135.274 175.203 135.556H175.063C174.906 135.587 174.766 135.571 174.641 135.509C174.547 135.415 174.422 135.368 174.266 135.368C174.172 135.368 174.109 135.384 174.078 135.415C173.141 136.04 172.094 136.352 170.938 136.352C170.625 136.352 170.328 136.337 170.047 136.306C169.766 136.243 169.469 136.212 169.156 136.212C169.063 136.212 169 136.243 168.969 136.306L168.875 136.493C168.844 136.556 168.797 136.618 168.734 136.681C168.703 136.743 168.594 136.774 168.406 136.774C168.063 136.774 167.719 136.727 167.375 136.634C167.031 136.54 166.672 136.524 166.297 136.587C165.578 136.181 165.016 135.79 164.609 135.415C164.203 135.04 163.828 134.477 163.484 133.727C163.328 133.384 163.109 133.056 162.828 132.743C162.578 132.431 162.391 132.087 162.266 131.712C162.234 131.587 162.188 131.368 162.125 131.056C162.063 130.712 162 130.352 161.938 129.977C161.875 129.602 161.813 129.243 161.75 128.899C161.719 128.556 161.703 128.321 161.703 128.196C161.703 127.821 161.719 127.462 161.75 127.118C161.813 126.743 161.875 126.368 161.938 125.993C162.125 124.806 162.25 123.618 162.313 122.431C162.406 121.212 162.672 120.04 163.109 118.915C163.047 118.571 163.016 118.243 163.016 117.931V116.899C163.016 116.306 162.938 115.806 162.781 115.399C163.031 114.993 163.156 114.54 163.156 114.04C163.156 113.477 162.922 113.149 162.453 113.056V112.915C162.453 112.259 162.234 111.743 161.797 111.368C161.797 110.274 162.063 109.462 162.594 108.931C163.156 108.368 163.891 107.884 164.797 107.477C164.922 107.29 164.969 107.134 164.938 107.009C165.156 107.071 165.359 107.134 165.547 107.196C165.734 107.259 165.922 107.29 166.109 107.29C166.422 107.29 166.703 107.243 166.953 107.149C167.047 107.524 167.281 107.759 167.656 107.852C168.063 107.915 168.391 108.009 168.641 108.134V108.743C168.641 109.712 168.875 110.634 169.344 111.509C169.219 111.759 169.141 112.024 169.109 112.306C169.078 112.587 169.063 112.852 169.063 113.102C169.063 113.477 169.078 113.852 169.109 114.227C169.141 114.602 169.156 114.962 169.156 115.306C169.156 115.681 169.109 116.056 169.016 116.431C168.953 116.806 168.781 117.134 168.5 117.415C168.469 117.821 168.438 118.29 168.406 118.821C168.406 119.321 168.375 119.837 168.313 120.368C168.281 120.899 168.203 121.415 168.078 121.915C167.953 122.415 167.766 122.821 167.516 123.134C167.484 123.602 167.453 124.087 167.422 124.587C167.422 125.056 167.422 125.509 167.422 125.946C167.422 126.634 167.453 127.446 167.516 128.384C167.609 129.321 167.828 130.102 168.172 130.727C168.328 130.977 168.625 131.165 169.063 131.29C169.531 131.415 169.906 131.477 170.188 131.477C170.531 131.477 170.875 131.431 171.219 131.337C171.594 131.212 171.859 131.009 172.016 130.727C172.203 130.759 172.328 130.852 172.391 131.009C172.453 131.165 172.563 131.29 172.719 131.384C174.5 130.634 176.281 129.915 178.063 129.227C179.844 128.54 181.594 127.743 183.313 126.837C183.563 126.962 183.828 127.024 184.109 127.024C184.422 127.024 184.734 126.993 185.047 126.931C185.359 126.868 185.672 126.837 185.984 126.837H186.313C186.375 127.024 186.406 127.165 186.406 127.259ZM215.75 109.493V109.681C215.531 109.743 215.422 109.899 215.422 110.149C215.078 110.306 214.719 110.431 214.344 110.524C213.969 110.587 213.609 110.696 213.266 110.852C212.922 110.821 212.563 110.806 212.188 110.806C211.844 110.774 211.5 110.759 211.156 110.759C210.219 110.759 209.281 110.79 208.344 110.852C207.406 110.915 206.469 110.915 205.531 110.852C205.094 111.102 204.609 111.306 204.078 111.462C203.578 111.587 203.094 111.649 202.625 111.649C202.25 111.649 201.922 111.602 201.641 111.509C200.891 111.884 200.063 112.196 199.156 112.446C198.281 112.696 197.391 112.946 196.484 113.196C195.578 113.415 194.703 113.681 193.859 113.993C193.047 114.274 192.328 114.681 191.703 115.212C191.641 115.649 191.594 116.087 191.563 116.524C191.531 116.931 191.516 117.337 191.516 117.743C191.516 118.181 191.531 118.587 191.563 118.962C191.625 119.337 191.734 119.712 191.891 120.087C192.047 120.149 192.219 120.196 192.406 120.227C192.625 120.259 192.813 120.274 192.969 120.274C193.125 120.274 193.281 120.259 193.438 120.227C193.594 120.165 193.703 120.056 193.766 119.899C194.234 119.837 194.703 119.821 195.172 119.852C195.641 119.852 196.109 119.852 196.578 119.852C197.047 119.852 197.5 119.837 197.938 119.806C198.406 119.774 198.859 119.696 199.297 119.571C199.797 119.446 200.281 119.368 200.75 119.337C201.25 119.306 201.734 119.274 202.203 119.243C202.672 119.212 203.156 119.165 203.656 119.102C204.156 119.009 204.672 118.837 205.203 118.587C205.609 118.743 206.016 118.821 206.422 118.821C206.859 118.821 207.281 118.852 207.688 118.915C207.906 119.071 208.078 119.243 208.203 119.431C208.359 119.618 208.438 119.837 208.438 120.087C208.438 120.524 208.281 120.962 207.969 121.399C207.656 121.837 207.406 122.243 207.219 122.618H206.703C205.953 122.618 205.219 122.727 204.5 122.946C203.813 123.134 203.109 123.368 202.391 123.649C201.703 123.899 201 124.134 200.281 124.352C199.594 124.54 198.875 124.634 198.125 124.634C198 124.634 197.922 124.712 197.891 124.868C197.891 124.993 197.859 125.087 197.797 125.149C197.641 125.118 197.406 125.102 197.094 125.102C196.375 125.102 195.688 125.181 195.031 125.337C194.375 125.493 193.703 125.571 193.016 125.571C192.828 125.571 192.641 125.571 192.453 125.571C192.266 125.54 192.078 125.509 191.891 125.477C191.734 125.727 191.531 125.899 191.281 125.993C191.031 126.056 190.797 126.181 190.578 126.368C190.484 126.649 190.422 126.993 190.391 127.399C190.391 127.806 190.375 128.227 190.344 128.665C190.344 129.071 190.313 129.462 190.25 129.837C190.188 130.212 190.063 130.509 189.875 130.727C189.906 130.884 190.031 130.946 190.25 130.915C190.469 130.852 190.578 130.946 190.578 131.196C190.578 131.477 190.547 131.774 190.484 132.087C190.422 132.399 190.391 132.712 190.391 133.024C190.391 133.618 190.453 134.274 190.578 134.993C190.734 135.681 190.953 136.321 191.234 136.915C191.547 137.509 191.953 138.009 192.453 138.415C192.953 138.79 193.578 138.977 194.328 138.977C194.828 138.977 195.297 138.884 195.734 138.696C196.172 138.509 196.531 138.196 196.813 137.759L197.047 137.712C197.172 137.712 197.281 137.727 197.375 137.759C197.5 137.79 197.625 137.806 197.75 137.806C197.938 137.806 198.172 137.696 198.453 137.477C198.766 137.227 199.094 136.946 199.438 136.634C199.813 136.321 200.188 136.024 200.563 135.743C200.938 135.431 201.297 135.212 201.641 135.087C201.859 134.649 202.063 134.212 202.25 133.774C202.469 133.337 202.781 132.993 203.188 132.743V131.384C203.5 131.04 203.828 130.727 204.172 130.446C204.547 130.165 204.828 129.806 205.016 129.368C205.172 129.431 205.313 129.477 205.438 129.509C205.594 129.54 205.75 129.556 205.906 129.556C206.063 129.556 206.219 129.54 206.375 129.509C206.563 129.477 206.734 129.431 206.891 129.368C207.141 129.712 207.328 130.102 207.453 130.54C207.609 130.946 207.797 131.337 208.016 131.712C207.734 132.274 207.406 132.946 207.031 133.727C206.656 134.509 206.25 135.29 205.813 136.071C205.375 136.852 204.906 137.602 204.406 138.321C203.938 139.009 203.469 139.54 203 139.915C202.906 140.009 202.703 140.118 202.391 140.243C202.047 140.493 201.734 140.727 201.453 140.946C201.172 141.196 200.906 141.477 200.656 141.79C199.75 142.071 198.875 142.446 198.031 142.915C197.219 143.384 196.406 143.837 195.594 144.274C195.219 144.181 194.813 144.134 194.375 144.134C194 144.134 193.625 144.149 193.25 144.181C192.875 144.243 192.469 144.274 192.031 144.274C191.906 144.118 191.719 144.009 191.469 143.946C191.25 143.915 191.172 143.759 191.234 143.477C190.172 143.415 189.313 143.118 188.656 142.587C188 142.087 187.438 141.462 186.969 140.712C186.531 139.962 186.172 139.149 185.891 138.274C185.609 137.399 185.313 136.556 185 135.743V135.602C185 135.446 185.063 135.352 185.188 135.321C185.313 135.29 185.375 135.196 185.375 135.04C185.375 134.977 185.359 134.931 185.328 134.899C185.234 134.556 185.156 134.259 185.094 134.009C185.031 133.759 185 133.462 185 133.118C185 132.618 185.031 132.134 185.094 131.665C185.156 131.165 185.188 130.665 185.188 130.165C185.188 129.665 185.125 129.227 185 128.852C185.125 128.696 185.234 128.493 185.328 128.243C185.391 127.962 185.438 127.681 185.469 127.399C185.5 127.118 185.516 126.837 185.516 126.556C185.547 126.274 185.594 126.024 185.656 125.806C185.531 125.462 185.422 125.165 185.328 124.915C185.234 124.634 185.188 124.306 185.188 123.931V123.602C185.5 123.071 185.766 122.524 185.984 121.962C186.203 121.399 186.438 120.821 186.688 120.227V120.087C186.688 119.181 186.656 118.274 186.594 117.368C186.531 116.462 186.5 115.556 186.5 114.649V113.759C186.5 113.446 186.516 113.149 186.547 112.868C186.797 112.743 186.984 112.571 187.109 112.352C187.234 112.134 187.422 111.962 187.672 111.837H189.219L189.5 111.368C189.594 111.212 189.656 111.04 189.688 110.852C190.031 110.759 190.359 110.634 190.672 110.477C191.016 110.29 191.328 110.102 191.609 109.915C192.047 109.665 192.438 109.446 192.781 109.259C193.156 109.04 193.516 108.868 193.859 108.743C194.234 108.587 194.625 108.462 195.031 108.368C195.438 108.274 195.906 108.196 196.438 108.134C196.688 108.134 196.844 108.087 196.906 107.993C197 107.899 197.125 107.79 197.281 107.665C197.656 107.727 198.031 107.79 198.406 107.852C198.781 107.884 199.156 107.899 199.531 107.899C200.281 107.899 200.984 107.759 201.641 107.477C202.578 107.477 203.5 107.462 204.406 107.431C205.344 107.399 206.281 107.384 207.219 107.384C208.031 107.384 208.844 107.415 209.656 107.477C210.469 107.54 211.266 107.649 212.047 107.806C212.328 107.712 212.641 107.665 212.984 107.665C213.359 107.665 213.734 107.712 214.109 107.806C214.516 107.868 214.906 107.868 215.281 107.806C215.313 108.149 215.391 108.446 215.516 108.696C215.672 108.915 215.75 109.181 215.75 109.493Z" fill="black"/>
<path d="M24.1825 92.6329C24.1825 119.886 34.9466 137.9 24.1825 147.921C36.7457 147.921 -11.5915 190.124 2.65423 92.6329C2.65423 65.3801 7.47349 43.2875 13.4183 43.2875C19.3632 43.2875 24.1825 65.3801 24.1825 92.6329Z" fill="#985E6D"/>
</svg>
